name analog
datacolumns 19
datarows 50
range 0.1835 0.20800000000000002
endheader
time	ground_force_vx	ground_force_vy	ground_force_vz	ground_force_px	ground_force_py	ground_force_pz	l_ground_force_vx	l_ground_force_vy	l_ground_force_vz	l_ground_force_px	l_ground_force_py	l_ground_force_pz	ground_torque_x	ground_torque_y	ground_torque_z	l_ground_torque_x	l_ground_torque_y	l_ground_torque_z
0.1835	-0.0	-0.0	-0.0	7.614694118499756	-3.832607269287109	-742.986572265625	-0.0	-0.0	-0.0	-34.72541427612305	16.374473571777344	75.7447509765625	-0.0	-0.0	-0.0	-0.0	-0.0	-0.0
0.184	-0.0	-0.0	-0.0	7.1578216552734375	-2.9203131198883057	-743.2359619140625	-0.0	-0.0	-0.0	-34.92584609985352	16.24268341064453	75.8056640625	-0.0	-0.0	-0.0	-0.0	-0.0	-0.0
0.1845	-0.0	-0.0	-0.0	7.047630310058594	-1.3107572793960571	-744.8564453125	-0.0	-0.0	-0.0	-34.91499328613281	16.411762237548828	77.10672760009766	-0.0	-0.0	-0.0	-0.0	-0.0	-0.0
0.185	-0.0	-0.0	-0.0	6.816840171813965	-0.0523222014307975	-744.399658203125	-0.0	-0.0	-0.0	-34.65757751464844	16.24713897705078	76.96112060546875	-0.0	-0.0	-0.0	-0.0	-0.0	-0.0
0.1855	-0.0	-0.0	-0.0	6.616954803466797	1.1694552898406982	-744.8138427734375	-0.0	-0.0	-0.0	-34.836570739746094	16.04085922241211	75.90811157226562	-0.0	-0.0	-0.0	-0.0	-0.0	-0.0
0.186	-0.0	-0.0	-0.0	7.682912349700928	2.39120888710022	-743.065673828125	-0.0	-0.0	-0.0	-34.762088775634766	16.018413543701172	76.05421447753906	-0.0	-0.0	-0.0	-0.0	-0.0	-0.0
0.1865	-0.0	-0.0	-0.0	7.661182403564453	2.432593822479248	-742.8407592773438	-0.0	-0.0	-0.0	-34.366851806640625	16.20586395263672	75.8056640625	-0.0	-0.0	-0.0	-0.0	-0.0	-0.0
0.187	-0.0	-0.0	-0.0	7.467624187469482	1.9869041442871092	-742.2373657226562	-0.0	-0.0	-0.0	-34.900184631347656	16.194534301757812	74.95701599121094	-0.0	-0.0	-0.0	-0.0	-0.0	-0.0
0.1875	-0.0	-0.0	-0.0	7.597818851470947	1.719488263130188	-741.899169921875	-0.0	-0.0	-0.0	-34.82535552978516	16.104564666748047	76.69931030273438	-0.0	-0.0	-0.0	-0.0	-0.0	-0.0
0.188	-0.0	-0.0	-0.0	8.158927917480469	3.145537137985229	-742.0895385742188	-0.0	-0.0	-0.0	-34.686790466308594	16.156803131103516	76.45098114013672	-0.0	-0.0	-0.0	-0.0	-0.0	-0.0
0.1885	-0.0	-0.0	-0.0	8.043569564819336	4.21506404876709	-742.9298706054688	-0.0	-0.0	-0.0	-34.40391540527344	16.04067611694336	76.60930633544922	-0.0	-0.0	-0.0	-0.0	-0.0	-0.0
0.189	-0.0	-0.0	-0.0	8.15224552154541	4.612075328826904	-741.5751342773438	-0.0	-0.0	-0.0	-34.84867858886719	16.296279907226562	74.20832061767578	-0.0	-0.0	-0.0	-0.0	-0.0	-0.0
0.1895	-0.0	-0.0	-0.0	7.0072832107543945	5.169563293457031	-741.1649780273438	-0.0	-0.0	-0.0	-34.773468017578125	16.17075538635254	75.20528411865234	-0.0	-0.0	-0.0	-0.0	-0.0	-0.0
0.19	-0.0	-0.0	-0.0	6.293787479400635	5.324666976928711	-740.35693359375	-0.0	-0.0	-0.0	-35.05381774902344	16.438453674316406	76.16435241699219	-0.0	-0.0	-0.0	-0.0	-0.0	-0.0
0.1905	-0.0	-0.0	-0.0	5.326788425445557	4.96548318862915	-740.357666015625	-0.0	-0.0	-0.0	-34.91461181640625	16.438486099243164	77.35791778564453	-0.0	-0.0	-0.0	-0.0	-0.0	-0.0
0.191	-0.0	-0.0	-0.0	4.650697231292725	4.775505065917969	-738.4435424804688	-0.0	-0.0	-0.0	-34.964569091796875	15.938393592834473	75.65079498291016	-0.0	-0.0	-0.0	-0.0	-0.0	-0.0
0.1915	-0.0	-0.0	-0.0	3.4018630981445312	3.8563132286071777	-736.7333984375	-0.0	-0.0	-0.0	-35.28459930419922	16.362194061279297	75.70465087890625	-0.0	-0.0	-0.0	-0.0	-0.0	-0.0
0.192	-0.0	-0.0	-0.0	2.523638963699341	1.9985562562942505	-737.3851318359375	-0.0	-0.0	-0.0	-34.77363586425781	16.066312789916992	76.81017303466797	-0.0	-0.0	-0.0	-0.0	-0.0	-0.0
0.1925	-0.0	-0.0	-0.0	2.547672748565674	0.0240282863378524	-737.5349731445312	-0.0	-0.0	-0.0	-34.62137985229492	16.22037696838379	74.0509033203125	-0.0	-0.0	-0.0	-0.0	-0.0	-0.0
0.193	-0.0	-0.0	-0.0	2.6763153076171875	-1.7826080322265625	-737.385986328125	-0.0	-0.0	-0.0	-35.156494140625	16.297060012817383	74.40185546875	-0.0	-0.0	-0.0	-0.0	-0.0	-0.0
0.1935	-0.0	-0.0	-0.0	3.32529091835022	-3.1195640563964844	-737.7928466796875	-0.0	-0.0	-0.0	-35.272254943847656	16.425580978393555	74.6539535522461	-0.0	-0.0	-0.0	-0.0	-0.0	-0.0
0.194	-0.0	-0.0	-0.0	3.773509740829468	-4.189128875732422	-738.3490600585938	-0.0	-0.0	-0.0	-34.799041748046875	16.22028350830078	75.40508270263672	-0.0	-0.0	-0.0	-0.0	-0.0	-0.0
0.1945	-0.0	-0.0	-0.0	4.651361465454102	-5.2462897300720215	-740.3173828125	-0.0	-0.0	-0.0	-35.23383712768555	16.31021499633789	75.7555923461914	-0.0	-0.0	-0.0	-0.0	-0.0	-0.0
0.195	-0.0	-0.0	-0.0	5.340102672576904	-5.577160358428955	-740.26513671875	-0.0	-0.0	-0.0	-34.6970100402832	16.348800659179688	76.4570541381836	-0.0	-0.0	-0.0	-0.0	-0.0	-0.0
0.1955	-0.0	-0.0	-0.0	6.385011672973633	-5.958827972412109	-737.9439086914062	-0.0	-0.0	-0.0	-34.786407470703125	16.284503936767578	75.75491333007812	-0.0	-0.0	-0.0	-0.0	-0.0	-0.0
0.196	-0.0	-0.0	-0.0	7.085850715637207	-6.213655948638916	-735.4721069335938	-0.0	-0.0	-0.0	-34.95279312133789	15.975223541259766	75.35232543945312	-0.0	-0.0	-0.0	-0.0	-0.0	-0.0
0.1965	-0.0	-0.0	-0.0	7.875982284545898	-6.621303081512451	-732.2427978515625	-0.0	-0.0	-0.0	-34.86336898803711	16.155719757080078	75.60611724853516	-0.0	-0.0	-0.0	-0.0	-0.0	-0.0
0.197	-0.0	-0.0	-0.0	7.913980960845947	-6.952481269836426	-729.2158203125	-0.0	-0.0	-0.0	-34.837982177734375	16.206787109375	76.05284118652344	-0.0	-0.0	-0.0	-0.0	-0.0	-0.0
0.1975	-0.0	-0.0	-0.0	8.003539085388184	-6.506519317626953	-725.9390869140625	-0.0	-0.0	-0.0	-35.05569076538086	15.899107933044434	75.95753479003906	-0.0	-0.0	-0.0	-0.0	-0.0	-0.0
0.198	-0.0	-0.0	-0.0	7.315261840820312	-6.392042636871338	-723.4129028320312	-0.0	-0.0	-0.0	-34.70988464355469	16.554412841796875	76.0572280883789	-0.0	-0.0	-0.0	-0.0	-0.0	-0.0
0.1985	-0.0	-0.0	-0.0	7.341670036315918	-6.188502788543701	-720.33447265625	-0.0	-0.0	-0.0	-35.221336364746094	16.1300106048584	76.05026245117188	-0.0	-0.0	-0.0	-0.0	-0.0	-0.0
0.199	-0.0	-0.0	-0.0	6.677501678466797	-6.51979398727417	-717.4136352539062	-0.0	-0.0	-0.0	-34.774070739746094	16.02629852294922	74.69931030273438	-0.0	-0.0	-0.0	-0.0	-0.0	-0.0
0.1995	-0.0	-0.0	-0.0	6.818668842315674	-6.289623260498047	-713.5234985351562	-0.0	-0.0	-0.0	-34.64566421508789	16.037696838378906	75.4547119140625	-0.0	-0.0	-0.0	-0.0	-0.0	-0.0
0.2	-0.0	-0.0	-0.0	6.461902141571045	-6.151788711547852	-710.19140625	-0.0	-0.0	-0.0	-34.83840560913086	16.076679229736328	75.9045181274414	-0.0	-0.0	-0.0	-0.0	-0.0	-0.0
0.2005	-0.0	-0.0	-0.0	5.633845806121826	-5.361395835876465	-710.3984375	-0.0	-0.0	-0.0	-34.98095703125	16.09054946899414	76.31004333496094	-0.0	-0.0	-0.0	-0.0	-0.0	-0.0
0.201	-0.0	-0.0	-0.0	5.1512603759765625	-5.24722957611084	-707.9264526367188	-0.0	-0.0	-0.0	-34.975303649902344	16.169254302978516	75.75054931640625	-0.0	-0.0	-0.0	-0.0	-0.0	-0.0
0.2015	-0.0	-0.0	-0.0	4.842501163482666	-4.495428562164307	-706.0613403320312	-0.0	-0.0	-0.0	-35.02846145629883	15.949868202209473	75.55317687988281	-0.0	-0.0	-0.0	-0.0	-0.0	-0.0
0.202	-0.0	-0.0	-0.0	3.939130544662476	-4.300731182098389	-705.807861328125	-0.0	-0.0	-0.0	-34.86372375488281	16.298805236816406	75.6514892578125	-0.0	-0.0	-0.0	-0.0	-0.0	-0.0
0.2025	-0.0	-0.0	-0.0	3.71066951751709	-4.253205299377441	-705.0025024414062	-0.0	-0.0	-0.0	-34.77067947387695	16.10820960998535	75.9039077758789	-0.0	-0.0	-0.0	-0.0	-0.0	-0.0
0.203	-0.0	-0.0	-0.0	3.1505560874938965	-4.880302429199219	-707.6610107421875	-0.0	-0.0	-0.0	-34.73488998413086	16.234210968017578	76.11519622802734	-0.0	-0.0	-0.0	-0.0	-0.0	-0.0
0.20350000000000001	-0.0	-0.0	-0.0	2.0801708698272705	-5.27284574508667	-708.733154296875	-0.0	-0.0	-0.0	-34.55595016479492	16.439319610595703	77.16842651367188	-0.0	-0.0	-0.0	-0.0	-0.0	-0.0
0.20400000000000001	-0.0	-0.0	-0.0	1.2846248149871826	-5.255119323730469	-711.3609008789062	-0.0	-0.0	-0.0	-34.8139762878418	16.204904556274414	75.55256652832031	-0.0	-0.0	-0.0	-0.0	-0.0	-0.0
0.20450000000000002	-0.0	-0.0	-0.0	0.71368408203125	-6.239128112792969	-710.1726684570312	-0.0	-0.0	-0.0	-34.66007614135742	16.06468963623047	75.4547119140625	-0.0	-0.0	-0.0	-0.0	-0.0	-0.0
0.20500000000000002	-0.0	-0.0	-0.0	1.084987759590149	-6.224679470062256	-712.8729858398438	-0.0	-0.0	-0.0	-34.81415939331055	16.334550857543945	75.31761169433594	-0.0	-0.0	-0.0	-0.0	-0.0	-0.0
0.20550000000000002	-0.0	-0.0	-0.0	1.1099793910980225	-6.467101573944092	-714.9515991210938	-0.0	-0.0	-0.0	-34.46635437011719	16.429485321044922	76.0005874633789	-0.0	-0.0	-0.0	-0.0	-0.0	-0.0
0.20600000000000002	-0.0	-0.0	-0.0	0.9022582173347472	-6.823547840118408	-717.9746704101562	-0.0	-0.0	-0.0	-34.83919143676758	16.179407119750977	76.7612075805664	-0.0	-0.0	-0.0	-0.0	-0.0	-0.0
0.20650000000000002	-0.0	-0.0	-0.0	0.064404971897602	-6.590871810913086	-719.78076171875	-0.0	-0.0	-0.0	-34.97826385498047	16.104564666748047	74.7528076171875	-0.0	-0.0	-0.0	-0.0	-0.0	-0.0
0.20700000000000002	-0.0	-0.0	-0.0	-0.39150071144104	-7.417575359344482	-722.900390625	-0.0	-0.0	-0.0	-34.799346923828125	16.064353942871094	74.7528076171875	-0.0	-0.0	-0.0	-0.0	-0.0	-0.0
0.20750000000000002	-0.0	-0.0	-0.0	-1.3178876638412476	-8.44793701171875	-727.333984375	-0.0	-0.0	-0.0	-34.808685302734375	16.154247283935547	75.39446258544922	-0.0	-0.0	-0.0	-0.0	-0.0	-0.0
0.20800000000000002	-0.0	-0.0	-0.0	-1.833607196807861	-8.8883638381958	-730.0447998046875	-0.0	-0.0	-0.0	-34.92893981933594	16.138612747192383	75.2972640991211	-0.0	-0.0	-0.0	-0.0	-0.0	-0.0
